<svg xmlns="http://www.w3.org/2000/svg" width="128" height="128" viewBox="0 0 128 128">
  <rect width="128" height="128" rx="24" fill="#1A237E"/>
  <rect x="58" y="16" width="6" height="6" fill="#FFEB3B"/>
  <rect x="64" y="16" width="6" height="6" fill="#FFEB3B"/>
  <rect x="52" y="22" width="6" height="6" fill="#FFEB3B"/>
  <rect x="58" y="22" width="6" height="6" fill="#FFEB3B"/>
  <rect x="64" y="22" width="6" height="6" fill="#FFEB3B"/>
  <rect x="70" y="22" width="6" height="6" fill="#FFEB3B"/>
  <rect x="46" y="28" width="6" height="6" fill="#FFEB3B"/>
  <rect x="52" y="28" width="6" height="6" fill="#FFEB3B"/>
  <rect x="58" y="28" width="6" height="6" fill="#FFEB3B"/>
  <rect x="64" y="28" width="6" height="6" fill="#FFEB3B"/>
  <rect x="70" y="28" width="6" height="6" fill="#FFEB3B"/>
  <rect x="76" y="28" width="6" height="6" fill="#FFEB3B"/>
  <rect x="40" y="34" width="6" height="6" fill="#FFEB3B"/>
  <rect x="46" y="34" width="6" height="6" fill="#FFEB3B"/>
  <rect x="58" y="34" width="6" height="6" fill="#FFEB3B"/>
  <rect x="64" y="34" width="6" height="6" fill="#FFEB3B"/>
  <rect x="76" y="34" width="6" height="6" fill="#FFEB3B"/>
  <rect x="82" y="34" width="6" height="6" fill="#FFEB3B"/>
  <rect x="40" y="40" width="6" height="6" fill="#FFEB3B"/>
  <rect x="46" y="40" width="6" height="6" fill="#FFEB3B"/>
  <rect x="52" y="40" width="6" height="6" fill="#FFEB3B"/>
  <rect x="58" y="40" width="6" height="6" fill="#FFEB3B"/>
  <rect x="64" y="40" width="6" height="6" fill="#FFEB3B"/>
  <rect x="70" y="40" width="6" height="6" fill="#FFEB3B"/>
  <rect x="76" y="40" width="6" height="6" fill="#FFEB3B"/>
  <rect x="82" y="40" width="6" height="6" fill="#FFEB3B"/>
  <rect x="52" y="46" width="6" height="6" fill="#FFEB3B"/>
  <rect x="70" y="46" width="6" height="6" fill="#FFEB3B"/>
  <rect x="46" y="52" width="6" height="6" fill="#FFEB3B"/>
  <rect x="58" y="52" width="6" height="6" fill="#FFEB3B"/>
  <rect x="64" y="52" width="6" height="6" fill="#FFEB3B"/>
  <rect x="76" y="52" width="6" height="6" fill="#FFEB3B"/>
  <rect x="40" y="58" width="6" height="6" fill="#FFEB3B"/>
  <rect x="52" y="58" width="6" height="6" fill="#FFEB3B"/>
  <rect x="70" y="58" width="6" height="6" fill="#FFEB3B"/>
  <rect x="82" y="58" width="6" height="6" fill="#FFEB3B"/>
  <rect x="32" y="76" width="4" height="4" fill="#4FC3F7"/>
  <rect x="36" y="76" width="4" height="4" fill="#4FC3F7"/>
  <rect x="40" y="76" width="4" height="4" fill="#4FC3F7"/>
  <rect x="44" y="76" width="4" height="4" fill="#4FC3F7"/>
  <rect x="20" y="80" width="4" height="4" fill="#4FC3F7"/>
  <rect x="24" y="80" width="4" height="4" fill="#4FC3F7"/>
  <rect x="28" y="80" width="4" height="4" fill="#4FC3F7"/>
  <rect x="32" y="80" width="4" height="4" fill="#4FC3F7"/>
  <rect x="36" y="80" width="4" height="4" fill="#4FC3F7"/>
  <rect x="40" y="80" width="4" height="4" fill="#4FC3F7"/>
  <rect x="44" y="80" width="4" height="4" fill="#4FC3F7"/>
  <rect x="48" y="80" width="4" height="4" fill="#4FC3F7"/>
  <rect x="52" y="80" width="4" height="4" fill="#4FC3F7"/>
  <rect x="56" y="80" width="4" height="4" fill="#4FC3F7"/>
  <rect x="16" y="84" width="4" height="4" fill="#4FC3F7"/>
  <rect x="20" y="84" width="4" height="4" fill="#4FC3F7"/>
  <rect x="24" y="84" width="4" height="4" fill="#4FC3F7"/>
  <rect x="28" y="84" width="4" height="4" fill="#4FC3F7"/>
  <rect x="32" y="84" width="4" height="4" fill="#4FC3F7"/>
  <rect x="36" y="84" width="4" height="4" fill="#4FC3F7"/>
  <rect x="40" y="84" width="4" height="4" fill="#4FC3F7"/>
  <rect x="44" y="84" width="4" height="4" fill="#4FC3F7"/>
  <rect x="48" y="84" width="4" height="4" fill="#4FC3F7"/>
  <rect x="52" y="84" width="4" height="4" fill="#4FC3F7"/>
  <rect x="56" y="84" width="4" height="4" fill="#4FC3F7"/>
  <rect x="60" y="84" width="4" height="4" fill="#4FC3F7"/>
  <rect x="16" y="88" width="4" height="4" fill="#4FC3F7"/>
  <rect x="20" y="88" width="4" height="4" fill="#4FC3F7"/>
  <rect x="24" y="88" width="4" height="4" fill="#4FC3F7"/>
  <rect x="36" y="88" width="4" height="4" fill="#4FC3F7"/>
  <rect x="40" y="88" width="4" height="4" fill="#4FC3F7"/>
  <rect x="52" y="88" width="4" height="4" fill="#4FC3F7"/>
  <rect x="56" y="88" width="4" height="4" fill="#4FC3F7"/>
  <rect x="60" y="88" width="4" height="4" fill="#4FC3F7"/>
  <rect x="16" y="92" width="4" height="4" fill="#4FC3F7"/>
  <rect x="20" y="92" width="4" height="4" fill="#4FC3F7"/>
  <rect x="24" y="92" width="4" height="4" fill="#4FC3F7"/>
  <rect x="28" y="92" width="4" height="4" fill="#4FC3F7"/>
  <rect x="32" y="92" width="4" height="4" fill="#4FC3F7"/>
  <rect x="36" y="92" width="4" height="4" fill="#4FC3F7"/>
  <rect x="40" y="92" width="4" height="4" fill="#4FC3F7"/>
  <rect x="44" y="92" width="4" height="4" fill="#4FC3F7"/>
  <rect x="48" y="92" width="4" height="4" fill="#4FC3F7"/>
  <rect x="52" y="92" width="4" height="4" fill="#4FC3F7"/>
  <rect x="56" y="92" width="4" height="4" fill="#4FC3F7"/>
  <rect x="60" y="92" width="4" height="4" fill="#4FC3F7"/>
  <rect x="28" y="96" width="4" height="4" fill="#4FC3F7"/>
  <rect x="32" y="96" width="4" height="4" fill="#4FC3F7"/>
  <rect x="44" y="96" width="4" height="4" fill="#4FC3F7"/>
  <rect x="48" y="96" width="4" height="4" fill="#4FC3F7"/>
  <rect x="24" y="100" width="4" height="4" fill="#4FC3F7"/>
  <rect x="28" y="100" width="4" height="4" fill="#4FC3F7"/>
  <rect x="36" y="100" width="4" height="4" fill="#4FC3F7"/>
  <rect x="40" y="100" width="4" height="4" fill="#4FC3F7"/>
  <rect x="48" y="100" width="4" height="4" fill="#4FC3F7"/>
  <rect x="52" y="100" width="4" height="4" fill="#4FC3F7"/>
  <rect x="16" y="104" width="4" height="4" fill="#4FC3F7"/>
  <rect x="20" y="104" width="4" height="4" fill="#4FC3F7"/>
  <rect x="56" y="104" width="4" height="4" fill="#4FC3F7"/>
  <rect x="60" y="104" width="4" height="4" fill="#4FC3F7"/>
  <rect x="96" y="76" width="4" height="4" fill="#FFA000"/>
  <rect x="124" y="76" width="4" height="4" fill="#FFA000"/>
  <rect x="88" y="80" width="4" height="4" fill="#FFA000"/>
  <rect x="100" y="80" width="4" height="4" fill="#FFA000"/>
  <rect x="120" y="80" width="4" height="4" fill="#FFA000"/>
  <rect x="132" y="80" width="4" height="4" fill="#FFA000"/>
  <rect x="88" y="84" width="4" height="4" fill="#FFA000"/>
  <rect x="96" y="84" width="4" height="4" fill="#FFA000"/>
  <rect x="100" y="84" width="4" height="4" fill="#FFA000"/>
  <rect x="104" y="84" width="4" height="4" fill="#FFA000"/>
  <rect x="108" y="84" width="4" height="4" fill="#FFA000"/>
  <rect x="112" y="84" width="4" height="4" fill="#FFA000"/>
  <rect x="116" y="84" width="4" height="4" fill="#FFA000"/>
  <rect x="120" y="84" width="4" height="4" fill="#FFA000"/>
  <rect x="124" y="84" width="4" height="4" fill="#FFA000"/>
  <rect x="132" y="84" width="4" height="4" fill="#FFA000"/>
  <rect x="88" y="88" width="4" height="4" fill="#FFA000"/>
  <rect x="92" y="88" width="4" height="4" fill="#FFA000"/>
  <rect x="96" y="88" width="4" height="4" fill="#FFA000"/>
  <rect x="104" y="88" width="4" height="4" fill="#FFA000"/>
  <rect x="108" y="88" width="4" height="4" fill="#FFA000"/>
  <rect x="112" y="88" width="4" height="4" fill="#FFA000"/>
  <rect x="116" y="88" width="4" height="4" fill="#FFA000"/>
  <rect x="124" y="88" width="4" height="4" fill="#FFA000"/>
  <rect x="128" y="88" width="4" height="4" fill="#FFA000"/>
  <rect x="132" y="88" width="4" height="4" fill="#FFA000"/>
  <rect x="88" y="92" width="4" height="4" fill="#FFA000"/>
  <rect x="92" y="92" width="4" height="4" fill="#FFA000"/>
  <rect x="96" y="92" width="4" height="4" fill="#FFA000"/>
  <rect x="100" y="92" width="4" height="4" fill="#FFA000"/>
  <rect x="104" y="92" width="4" height="4" fill="#FFA000"/>
  <rect x="108" y="92" width="4" height="4" fill="#FFA000"/>
  <rect x="112" y="92" width="4" height="4" fill="#FFA000"/>
  <rect x="116" y="92" width="4" height="4" fill="#FFA000"/>
  <rect x="120" y="92" width="4" height="4" fill="#FFA000"/>
  <rect x="124" y="92" width="4" height="4" fill="#FFA000"/>
  <rect x="128" y="92" width="4" height="4" fill="#FFA000"/>
  <rect x="132" y="92" width="4" height="4" fill="#FFA000"/>
  <rect x="92" y="96" width="4" height="4" fill="#FFA000"/>
  <rect x="96" y="96" width="4" height="4" fill="#FFA000"/>
  <rect x="100" y="96" width="4" height="4" fill="#FFA000"/>
  <rect x="104" y="96" width="4" height="4" fill="#FFA000"/>
  <rect x="108" y="96" width="4" height="4" fill="#FFA000"/>
  <rect x="112" y="96" width="4" height="4" fill="#FFA000"/>
  <rect x="116" y="96" width="4" height="4" fill="#FFA000"/>
  <rect x="120" y="96" width="4" height="4" fill="#FFA000"/>
  <rect x="124" y="96" width="4" height="4" fill="#FFA000"/>
  <rect x="128" y="96" width="4" height="4" fill="#FFA000"/>
  <rect x="96" y="100" width="4" height="4" fill="#FFA000"/>
  <rect x="124" y="100" width="4" height="4" fill="#FFA000"/>
  <rect x="92" y="104" width="4" height="4" fill="#FFA000"/>
  <rect x="128" y="104" width="4" height="4" fill="#FFA000"/>
</svg>
